<svg xmlns="http://www.w3.org/2000/svg" viewBox="0 0 507.82 423.54"><defs><style>.cls-1{fill:#f16564;}.cls-2{fill:#172b4d;}</style></defs><title>Seconday Logo</title><g id="Layer_2" data-name="Layer 2"><g id="Layer_1-2" data-name="Layer 1"><polygon class="cls-1" points="95.47 69.24 95.47 33.27 412.36 33.27 412.36 69.24 445.63 69.24 445.63 0 62.19 0 62.19 69.24 95.47 69.24"/><polygon class="cls-1" points="412.36 318.53 412.36 337.32 253.91 388.57 95.47 337.32 95.47 318.53 62.19 318.53 62.19 361.52 253.91 423.55 445.63 361.52 445.63 318.53 412.36 318.53"/><path class="cls-2" d="M164.46,194.42c-10.82-11.16-25.7-17.47-43-18.25H62.82c-12.71,0-20.91-8.42-20.91-21.45,0-13.48,7.77-21.21,21.88-21.21h84.74l26.63-36.86H63c-24.17,0-38.57,10.4-46.39,19.14a60.22,60.22,0,0,0-15,40.4c0,27.12,21.52,55.95,61.39,55.95l54.95-.1c13.05,0,21.5,8.18,21.5,20.85,0,12.2-8.61,19.64-22.47,19.64H28.86L0,292.76H117.76c40.25,0,62-31.59,62-61.32A53.87,53.87,0,0,0,164.46,194.42Z"/><path class="cls-2" d="M266.6,176.82v35.54h33.13v39.8h-35c-14.77,0-30.17-4.51-41.15-12.06-14.71-10.11-22.16-25.5-22.16-45.75,0-38.25,23.08-60.18,63.31-60.18h49l26.67-37.5H263.1c-40.86,0-70.46,13.67-88,40.65-13.81,21.26-15.88,44.86-15.88,57,0,49.59,26.51,73.42,48.75,84.68,24.41,12.36,50.19,13,55.12,13h75.69V176.82Z"/><path class="cls-2" d="M433.79,176.82v35.54h33.45v39.8H432.18c-14.78,0-30.16-4.51-41.15-12.06-14.71-10.11-22.17-25.5-22.17-45.75,0-38.25,23.08-60.18,63.32-60.18h49l26.67-37.5H430.6c-40.85,0-70.46,13.67-88,40.65-13.81,21.26-15.88,44.86-15.88,57,0,49.59,26.51,73.42,48.75,84.68,24.41,12.36,50.19,13,55.11,13h75.7V176.82Z"/></g></g></svg>