<svg xmlns="http://www.w3.org/2000/svg" viewBox="0 0 527.22 258.31"><defs><style>.cls-1{fill:#f16564;}.cls-2{fill:#172b4d;}</style></defs><title>Primary Logo</title><g id="Layer_2" data-name="Layer 2"><g id="Layer_1-2" data-name="Layer 1"><path class="cls-1" d="M16.62,239c-4.11-.49-5.71-1.3-5.71-2.89,0-1.94,1.94-3.09,5.19-3.09,2.88,0,5.31,1.46,6.13,2.82l.32.53,5.35-2.76-.28-.57c-1.92-3.91-6-6-11.67-6S4.36,229.92,4.36,236c0,6.89,5.89,8.51,11.66,9.19,5.33.58,5.94,2.28,5.94,3.5,0,3.31-4.46,3.57-5.83,3.57-3.57,0-6.3-1.52-7.32-4.06l-.27-.67-5.61,2.9.23.55c2,4.94,6.23,7.34,12.9,7.34,6,0,12.5-2.53,12.5-9.64S22.82,239.81,16.62,239Z"/><path class="cls-1" d="M47.91,227.51c-10.42,0-15.16,8-15.16,15.53s4.69,15.2,15.16,15.2S62.94,250.59,63,243a15.81,15.81,0,0,0-4.35-11.29A14.71,14.71,0,0,0,47.91,227.51Zm0,24.54c-6.18,0-8.5-4.63-8.61-9A9.76,9.76,0,0,1,41.83,236a8.13,8.13,0,0,1,6.08-2.36,8.09,8.09,0,0,1,6,2.3,9.88,9.88,0,0,1,2.56,7.1C56.4,247.4,54.12,252.05,47.91,252.05Z"/><path class="cls-1" d="M89.69,249.26a9.66,9.66,0,0,1-6.63,2.67c-6.62,0-9-4.59-9.05-8.9a9.38,9.38,0,0,1,2.54-6.68,8.82,8.82,0,0,1,6.51-2.45,9,9,0,0,1,6.35,2.47l.46.44,4.48-4.33-.48-.47a15.17,15.17,0,0,0-10.82-4.5,15.41,15.41,0,0,0-11.24,4.29A15.81,15.81,0,0,0,67.46,243c0,7,4.15,15.2,15.6,15.2a15.53,15.53,0,0,0,11.18-4.38l.47-.46-4.55-4.61Z"/><rect class="cls-1" x="101.66" y="228.07" width="6.59" height="29.52"/><path class="cls-1" d="M127.38,228.07l-13.24,29.52h7.2l2.41-5.31h13.91l2.37,5.31h7.24L134,228.07ZM134.95,246h-8.47l4.24-9.71Z"/><polygon class="cls-1" points="159.12 228.07 152.49 228.07 152.49 257.59 173.62 257.59 173.62 251.36 159.12 251.36 159.12 228.07"/><path class="cls-1" d="M205.23,246h7.21v4a8.69,8.69,0,0,1-5.71,1.92c-6.68,0-9.05-4.53-9.05-8.77,0-5.74,3.72-9.74,9.05-9.74a10.23,10.23,0,0,1,6.72,2.64l.46.45,4.21-4.32-.47-.46a15.49,15.49,0,0,0-10.93-4.5c-10.75,0-15.57,8-15.57,15.93,0,7.27,4.09,15,15.57,15a14.77,14.77,0,0,0,11.73-5.31l.17-.18V240h-13.4Z"/><path class="cls-1" d="M235.7,228.07l-13.24,29.52h7.2l2.42-5.31H246l2.37,5.31h7.25l-13.25-29.52ZM243.26,246H234.8l4.23-9.71Z"/><polygon class="cls-1" points="276.32 239.78 267.83 228.11 260.71 228.11 260.71 257.63 267.35 257.63 267.35 238.47 275.34 249.41 277.05 249.41 285.26 238.47 285.26 257.63 291.88 257.63 291.88 228.11 284.81 228.11 276.32 239.78"/><rect class="cls-1" x="299.67" y="228.07" width="6.6" height="29.52"/><polygon class="cls-1" points="331.81 244.33 319.16 228.32 318.96 228.07 313.68 228.07 313.68 257.59 320.31 257.59 320.31 239.82 334.14 257.59 338.44 257.59 338.44 228.03 331.81 228.03 331.81 244.33"/><path class="cls-1" d="M359,246h7.21v4A8.69,8.69,0,0,1,360.5,252c-6.68,0-9.05-4.53-9.05-8.77,0-5.74,3.72-9.74,9.05-9.74a10.23,10.23,0,0,1,6.72,2.64l.46.45,4.21-4.32-.47-.46a15.5,15.5,0,0,0-10.93-4.5c-10.75,0-15.57,8-15.57,15.93,0,7.27,4.09,15,15.57,15a14.77,14.77,0,0,0,11.73-5.31l.17-.18V240H359Z"/><path class="cls-1" d="M404.61,246h7.21v4a8.7,8.7,0,0,1-5.71,1.92c-6.68,0-9.05-4.53-9.05-8.77,0-5.74,3.72-9.74,9.05-9.74a10.24,10.24,0,0,1,6.72,2.64l.46.45,4.21-4.32-.47-.46a15.49,15.49,0,0,0-10.93-4.5c-10.75,0-15.57,8-15.57,15.93,0,7.27,4.09,15,15.57,15a14.77,14.77,0,0,0,11.73-5.31l.17-.18V240h-13.4Z"/><path class="cls-1" d="M444.57,244.93c0,4.52-2.27,7.12-6.23,7.12-4.21,0-6.63-2.6-6.63-7.12V228.11h-6.59v16.82c0,8.06,5.18,13.27,13.19,13.27s12.86-5.09,12.86-13.27V228.11h-6.6Z"/><rect class="cls-1" x="459.15" y="228.07" width="6.59" height="29.52"/><polygon class="cls-1" points="480.1 228.07 473.46 228.07 473.46 257.59 494.6 257.59 494.6 251.36 480.1 251.36 480.1 228.07"/><path class="cls-1" d="M512.46,228.07H500.72v29.52h11.73a14.58,14.58,0,0,0,10.7-4.08,15.2,15.2,0,0,0,4.06-10.93C527.1,235.36,522.49,228.07,512.46,228.07Zm5.95,20.88a8,8,0,0,1-5.95,2.21h-5.14V234.42h5.14c5.86,0,8.07,4.21,8.17,8.14A8.69,8.69,0,0,1,518.41,248.95Z"/><path class="cls-2" d="M170.22,101.17C159,89.62,143.63,83.09,125.67,82.28H65c-13.14,0-21.63-8.71-21.63-22.19,0-14,8-22,22.65-22h87.72L181.3,0H65.24c-25,0-39.91,10.77-48,19.81A62.33,62.33,0,0,0,1.71,61.62c0,28.07,22.27,57.91,63.53,57.91l56.87-.1c13.52,0,22.26,8.47,22.26,21.58,0,12.62-8.92,20.33-23.25,20.33H29.87L0,203H121.89c41.66,0,64.15-32.7,64.15-63.46A55.73,55.73,0,0,0,170.22,101.17Z"/><path class="cls-2" d="M275.94,83v36.78h34.29v41.2H274c-15.3,0-31.22-4.66-42.6-12.48-15.22-10.46-22.94-26.4-22.94-47.36,0-39.58,23.89-62.29,65.53-62.29h50.67L352.24,0H272.32C230,0,199.39,14.15,181.25,42.07c-14.3,22-16.44,46.43-16.44,59,0,51.34,27.44,76,50.46,87.66,25.26,12.79,51.95,13.44,57,13.44h78.34V83Z"/><path class="cls-2" d="M449,83v36.78H483.6v41.2H447.32c-15.3,0-31.22-4.66-42.59-12.48-15.22-10.46-22.94-26.4-22.94-47.36,0-39.58,23.89-62.29,65.53-62.29H498L525.62,0H445.69c-42.29,0-72.93,14.15-91.06,42.07-14.3,22-16.43,46.43-16.43,59,0,51.34,27.44,76,50.46,87.66,25.26,12.79,51.95,13.44,57,13.44H524V83Z"/></g></g></svg>